<svg width="1306" height="78" viewBox="0 0 1306 78" fill="none" xmlns="http://www.w3.org/2000/svg">
<path d="M15.9477 61.9039C6.6365 61.9039 0.760498 57.5647 0.760498 50.1519C0.760498 43.1911 6.3653 39.5751 15.2245 38.5807L35.6549 36.4111V33.7895C35.6549 26.3767 32.4005 23.7551 23.8125 23.7551C15.4957 23.7551 11.4277 26.4671 11.4277 33.0663V33.4279H1.7549V33.0663C1.7549 22.8511 10.2525 15.1671 24.5357 15.1671C38.8189 15.1671 45.2373 22.9415 45.2373 33.6991V60.9999H36.2877V49.7903H35.6549C33.3045 57.3839 26.1629 61.9039 15.9477 61.9039ZM10.5237 49.5191C10.5237 53.1351 12.9645 54.8527 18.5693 54.8527C28.7845 54.8527 35.6549 51.0559 35.6549 42.1967L18.0269 44.1855C12.9645 44.8183 10.5237 45.9935 10.5237 49.5191Z" fill="white"/>
<path d="M68.2356 60.9999H58.4724V16.0711H67.422V29.9927H68.0548C69.4108 22.3991 75.3772 15.1671 86.7676 15.1671C99.2428 15.1671 105.39 23.5743 105.39 33.9703V60.9999H95.6268V36.5919C95.6268 28.1847 91.83 23.9359 82.5188 23.9359C72.6652 23.9359 68.2356 28.9983 68.2356 38.7615V60.9999Z" fill="white"/>
<path d="M138.407 61.9039C124.214 61.9039 116.35 52.4119 116.35 38.5807C116.35 24.5687 124.124 15.1671 137.774 15.1671C148.442 15.1671 154.498 20.6815 156.306 28.2751H156.849V0.431885H166.612V60.9999H157.662V48.0727H157.03C155.131 57.0223 148.532 61.9039 138.407 61.9039ZM126.203 38.5807C126.203 49.3383 131.718 52.9543 141.39 52.9543C150.973 52.9543 156.849 48.4343 156.849 39.0327V38.3095C156.849 28.7271 151.244 24.0263 141.21 24.0263C131.808 24.0263 126.203 27.7327 126.203 38.5807Z" fill="white"/>
<path d="M189.923 60.9999H180.159V16.0711H189.109V28.1847H189.742C191.098 20.9527 195.979 15.1671 205.2 15.1671C215.415 15.1671 219.845 22.4895 219.845 30.9871V36.8631H210.172V32.8855C210.172 26.4671 207.46 23.4839 200.771 23.4839C193.087 23.4839 189.923 27.7327 189.923 35.7783V60.9999Z" fill="white"/>
<path d="M253.097 61.9039C238.362 61.9039 228.689 53.5871 228.689 38.5807C228.689 24.5687 238.272 15.1671 252.916 15.1671C266.838 15.1671 276.33 22.8511 276.33 36.5015C276.33 38.1287 276.24 39.3943 275.968 40.7503H237.82C238.181 49.4287 242.43 54.0391 252.826 54.0391C262.228 54.0391 266.115 50.9655 266.115 45.6319V44.9087H275.878V45.7223C275.878 55.3047 266.476 61.9039 253.097 61.9039ZM252.736 22.8511C242.792 22.8511 238.452 27.2807 237.91 35.3263H267.109V35.1455C267.109 26.8287 262.318 22.8511 252.736 22.8511Z" fill="white"/>
<path d="M301.361 61.9039C292.05 61.9039 286.174 57.5647 286.174 50.1519C286.174 43.1911 291.779 39.5751 300.638 38.5807L321.068 36.4111V33.7895C321.068 26.3767 317.814 23.7551 309.226 23.7551C300.909 23.7551 296.841 26.4671 296.841 33.0663V33.4279H287.168V33.0663C287.168 22.8511 295.666 15.1671 309.949 15.1671C324.232 15.1671 330.651 22.9415 330.651 33.6991V60.9999H321.701V49.7903H321.068C318.718 57.3839 311.576 61.9039 301.361 61.9039ZM295.937 49.5191C295.937 53.1351 298.378 54.8527 303.983 54.8527C314.198 54.8527 321.068 51.0559 321.068 42.1967L303.44 44.1855C298.378 44.8183 295.937 45.9935 295.937 49.5191Z" fill="white"/>
<path d="M363.683 61.9039C349.491 61.9039 341.626 52.4119 341.626 38.5807C341.626 24.5687 349.4 15.1671 363.051 15.1671C373.718 15.1671 379.775 20.6815 381.583 28.2751H382.125V0.431885H391.888V60.9999H382.939V48.0727H382.306C380.407 57.0223 373.808 61.9039 363.683 61.9039ZM351.479 38.5807C351.479 49.3383 356.994 52.9543 366.667 52.9543C376.249 52.9543 382.125 48.4343 382.125 39.0327V38.3095C382.125 28.7271 376.52 24.0263 366.486 24.0263C357.084 24.0263 351.479 27.7327 351.479 38.5807Z" fill="white"/>
<path d="M428.035 61.9039C413.3 61.9039 403.627 53.5871 403.627 38.5807C403.627 24.5687 413.21 15.1671 427.855 15.1671C441.776 15.1671 451.268 22.8511 451.268 36.5015C451.268 38.1287 451.178 39.3943 450.907 40.7503H412.758C413.119 49.4287 417.368 54.0391 427.764 54.0391C437.166 54.0391 441.053 50.9655 441.053 45.6319V44.9087H450.816V45.7223C450.816 55.3047 441.415 61.9039 428.035 61.9039ZM427.674 22.8511C417.73 22.8511 413.391 27.2807 412.848 35.3263H442.047V35.1455C442.047 26.8287 437.256 22.8511 427.674 22.8511Z" fill="white"/>
<path d="M472.864 60.9999H463.101V0.431885H472.864V60.9999Z" fill="white"/>
<path d="M496.188 60.9999H486.425V16.0711H495.374V28.1847H496.007C497.363 20.9527 502.245 15.1671 511.465 15.1671C521.681 15.1671 526.11 22.4895 526.11 30.9871V36.8631H516.437V32.8855C516.437 26.4671 513.725 23.4839 507.036 23.4839C499.352 23.4839 496.188 27.7327 496.188 35.7783V60.9999Z" fill="white"/>
<path d="M549.961 61.9039C540.65 61.9039 534.774 57.5647 534.774 50.1519C534.774 43.1911 540.379 39.5751 549.238 38.5807L569.668 36.4111V33.7895C569.668 26.3767 566.414 23.7551 557.826 23.7551C549.509 23.7551 545.441 26.4671 545.441 33.0663V33.4279H535.768V33.0663C535.768 22.8511 544.266 15.1671 558.549 15.1671C572.832 15.1671 579.251 22.9415 579.251 33.6991V60.9999H570.301V49.7903H569.668C567.318 57.3839 560.176 61.9039 549.961 61.9039ZM544.537 49.5191C544.537 53.1351 546.978 54.8527 552.583 54.8527C562.798 54.8527 569.668 51.0559 569.668 42.1967L552.04 44.1855C546.978 44.8183 544.537 45.9935 544.537 49.5191Z" fill="white"/>
<path d="M602.249 60.9999H592.486V16.0711H601.435V29.6311H601.978C603.153 22.1279 608.034 15.1671 619.244 15.1671C629.459 15.1671 634.974 21.4047 636.239 29.9927H636.782C637.957 22.3087 643.019 15.1671 654.41 15.1671C666.071 15.1671 671.947 23.1223 671.947 33.9703V60.9999H662.274V36.5919C662.274 27.7327 658.749 23.9359 650.07 23.9359C640.488 23.9359 637.053 28.8175 637.053 38.7615V60.9999H627.38V36.5919C627.38 27.7327 623.945 23.9359 615.266 23.9359C605.594 23.9359 602.249 28.8175 602.249 38.7615V60.9999Z" fill="white"/>
<path d="M708.16 61.9039C693.244 61.9039 683.21 52.4119 683.21 38.5807C683.21 24.5687 693.244 15.1671 708.16 15.1671C723.167 15.1671 733.201 24.5687 733.201 38.5807C733.201 52.4119 723.167 61.9039 708.16 61.9039ZM708.16 53.2255C719.099 53.2255 723.619 48.0727 723.619 38.5807C723.619 28.9983 719.099 23.7551 708.16 23.7551C697.312 23.7551 692.792 28.9983 692.792 38.5807C692.792 48.0727 697.312 53.2255 708.16 53.2255Z" fill="white"/>
<path d="M776.175 57.2935C766.864 57.2935 759.903 51.3271 759.903 38.8519C759.903 26.9191 766.773 20.4103 776.356 20.4103C783.678 20.4103 788.198 24.4783 789.554 30.1735H790.187V21.2239H798.685V44.0951C798.685 48.1631 800.221 49.8807 803.837 49.8807C808.719 49.8807 810.979 46.4455 810.979 35.3263C810.979 17.9695 802.21 9.56229 781.599 9.56229C760.717 9.56229 750.411 17.6983 750.411 38.5807C750.411 58.9207 760.265 66.9663 779.429 66.9663C785.577 66.9663 790.187 66.1527 794.707 64.7967L796.334 71.3959C791.272 73.2943 785.848 74.4695 778.525 74.4695C755.835 74.4695 741.642 60.9095 741.642 38.5807C741.642 15.9807 757.372 1.42628 782.051 1.42628C804.922 1.42628 819.296 13.9919 819.296 34.6031C819.296 48.5247 812.968 57.2935 803.205 57.2935C795.34 57.2935 790.91 53.4063 789.825 47.6207H789.373C787.927 52.6831 783.949 57.2935 776.175 57.2935ZM768.943 38.8519C768.943 46.9879 772.288 50.4231 779.249 50.4231C785.396 50.4231 789.554 47.0783 789.554 39.9367V37.7671C789.554 30.7159 785.396 27.3711 779.249 27.3711C772.288 27.3711 768.943 30.7159 768.943 38.8519Z" fill="white"/>
<path d="M849.63 56.9319C836.251 56.9319 828.296 48.5247 828.296 36.0495C828.296 23.5743 836.612 15.1671 850.263 15.1671C859.664 15.1671 866.716 19.4159 868.343 27.2807H868.885V16.0711H877.835V55.7567C877.835 70.8535 868.433 77.2719 853.698 77.2719C840.409 77.2719 831.188 71.0343 831.188 60.1863H840.861C840.861 66.6951 844.658 69.1359 854.24 69.1359C864.456 69.1359 868.162 66.3335 868.162 56.2991V45.2703H867.529C865.902 52.0503 859.845 56.9319 849.63 56.9319ZM838.149 36.0495C838.149 45.2703 843.573 48.5247 852.794 48.5247C862.738 48.5247 868.162 44.3663 868.162 36.4111V35.1455C868.162 27.5519 862.557 23.6647 853.065 23.6647C843.664 23.6647 838.149 26.8287 838.149 36.0495Z" fill="white"/>
<path d="M901.152 60.9999H891.388V16.0711H900.338V29.6311H900.88C902.056 22.1279 906.937 15.1671 918.147 15.1671C928.362 15.1671 933.876 21.4047 935.142 29.9927H935.684C936.86 22.3087 941.922 15.1671 953.312 15.1671C964.974 15.1671 970.85 23.1223 970.85 33.9703V60.9999H961.177V36.5919C961.177 27.7327 957.652 23.9359 948.973 23.9359C939.391 23.9359 935.956 28.8175 935.956 38.7615V60.9999H926.283V36.5919C926.283 27.7327 922.848 23.9359 914.169 23.9359C904.496 23.9359 901.152 28.8175 901.152 38.7615V60.9999Z" fill="white"/>
<path d="M997.3 61.9039C987.989 61.9039 982.113 57.5647 982.113 50.1519C982.113 43.1911 987.717 39.5751 996.577 38.5807L1017.01 36.4111V33.7895C1017.01 26.3767 1013.75 23.7551 1005.16 23.7551C996.848 23.7551 992.78 26.4671 992.78 33.0663V33.4279H983.107V33.0663C983.107 22.8511 991.605 15.1671 1005.89 15.1671C1020.17 15.1671 1026.59 22.9415 1026.59 33.6991V60.9999H1017.64V49.7903H1017.01C1014.66 57.3839 1007.51 61.9039 997.3 61.9039ZM991.876 49.5191C991.876 53.1351 994.317 54.8527 999.921 54.8527C1010.14 54.8527 1017.01 51.0559 1017.01 42.1967L999.379 44.1855C994.317 44.8183 991.876 45.9935 991.876 49.5191Z" fill="white"/>
<path d="M1049.59 10.8279H1039.82V0.431885H1049.59V10.8279ZM1049.59 60.9999H1039.82V16.0711H1049.59V60.9999Z" fill="white"/>
<path d="M1072.91 60.9999H1063.15V0.431885H1072.91V60.9999Z" fill="white"/>
<path d="M1096.96 60.9999H1084.66V46.9879H1096.96V60.9999Z" fill="white"/>
<path d="M1131.43 61.9039C1116.6 61.9039 1106.93 52.4119 1106.93 38.5807C1106.93 24.5687 1116.6 15.1671 1131.43 15.1671C1144.9 15.1671 1154.75 22.7607 1154.75 33.9703V34.8743H1145.08V34.3319C1145.08 27.3711 1140.02 23.9359 1131.25 23.9359C1121.12 23.9359 1116.6 28.7271 1116.6 38.5807C1116.6 48.2535 1121.12 53.1351 1131.25 53.1351C1140.02 53.1351 1145.08 49.6999 1145.08 42.7391V42.1063H1154.75V43.1007C1154.75 54.3103 1144.9 61.9039 1131.43 61.9039Z" fill="white"/>
<path d="M1189.45 61.9039C1174.54 61.9039 1164.5 52.4119 1164.5 38.5807C1164.5 24.5687 1174.54 15.1671 1189.45 15.1671C1204.46 15.1671 1214.49 24.5687 1214.49 38.5807C1214.49 52.4119 1204.46 61.9039 1189.45 61.9039ZM1189.45 53.2255C1200.39 53.2255 1204.91 48.0727 1204.91 38.5807C1204.91 28.9983 1200.39 23.7551 1189.45 23.7551C1178.6 23.7551 1174.08 28.9983 1174.08 38.5807C1174.08 48.0727 1178.6 53.2255 1189.45 53.2255Z" fill="white"/>
<path d="M1235.86 60.9999H1226.1V16.0711H1235.05V29.6311H1235.59C1236.77 22.1279 1241.65 15.1671 1252.86 15.1671C1263.07 15.1671 1268.59 21.4047 1269.85 29.9927H1270.39C1271.57 22.3087 1276.63 15.1671 1288.02 15.1671C1299.68 15.1671 1305.56 23.1223 1305.56 33.9703V60.9999H1295.89V36.5919C1295.89 27.7327 1292.36 23.9359 1283.68 23.9359C1274.1 23.9359 1270.67 28.8175 1270.67 38.7615V60.9999H1260.99V36.5919C1260.99 27.7327 1257.56 23.9359 1248.88 23.9359C1239.21 23.9359 1235.86 28.8175 1235.86 38.7615V60.9999Z" fill="white"/>
</svg>
